<svg xmlns="http://www.w3.org/2000/svg" viewBox="0 0 793.7 793.7"><defs><style>.cls-1{fill:#c65228;}</style></defs><title>rådig-3-rust-RGB</title><g id="Layer_2" data-name="Layer 2"><g id="Layer_1-2" data-name="Layer 1"><path class="cls-1" d="M611.27,119.84c-5.28-2.64-12.35,3.35-12.35,3.35L392.75,333.08a147.19,147.19,0,0,0-25.64,35.46l-72.72-73.67-20.48-31.39s36.66-82.42,130.22-107.22l10.78-14.14-7.78-25.76S312.84,153,272.35,223.59c0,0-53.91,24.79-62.78,64l-67.92,63.37,21.2,21.45,19.28,3.47s28.28-60.62,59.07-76l28.27,19.65,84,84.94c-3.71,15.45-4.67,31.62-1.43,47.56a83.59,83.59,0,0,1,1.79,13.41l-48.28,2.64-8.62,6.83s-2.88-5.39-9.35-2.88l-34.38,31.63s-68.77,43.13-98.48,92.85c-6,9.82-10.3,19.88-12.33,30,0,0,.24,5,7.43,10.66s12.33,4.31,12.33,4.31a119.39,119.39,0,0,0,30-13.54c51.88-32,91.53-98.83,91.53-98.83l30.55-34.15c1.56-5.27-3.12-7.3-4.2-7.78l4.92-5.87L362,479.36c5.39.36,10.67,0,15.57.84a118.23,118.23,0,0,0,41.1.24c24.32,24.92,53.55,53.91,83.26,80,0,0,61.69,65.89,70.68,80.86a38.74,38.74,0,0,0,40.37-39.89c-14.85-9.11-80.15-71.52-80.15-71.52-21.68-25.16-45.28-50.08-67-71.88A120.48,120.48,0,0,0,499.13,411L613.9,131.22S616.66,122.47,611.27,119.84Z"/><path class="cls-1" d="M396.85,0C178,0,0,178,0,396.85S178,793.7,396.85,793.7s396.85-178,396.85-396.85S615.68,0,396.85,0Zm0,771C190.55,771,22.7,603.15,22.7,396.85S190.55,22.7,396.85,22.7,771,190.55,771,396.85,603.15,771,396.85,771Z"/></g></g></svg>