<svg xmlns="http://www.w3.org/2000/svg" viewBox="0 0 1261.62 803.59"><defs><style>.cls-1{fill:#c65228;}.cls-2{fill:#fff;}</style></defs><title>rådig-1-rust-whitetext-RGB_2</title><g id="Layer_2" data-name="Layer 2"><g id="Layer_1-2" data-name="Layer 1"><path class="cls-1" d="M1261.87,247V557.1a8.49,8.49,0,0,1-5.46,7.94L634.08,803.28a8.5,8.5,0,0,1-6.08,0L5.71,565A8.49,8.49,0,0,1,.25,557.1V247a8.49,8.49,0,0,1,5.46-7.94L628,.81a8.5,8.5,0,0,1,6.08,0l622.33,238.24A8.49,8.49,0,0,1,1261.87,247Zm-117,189.27V413.75h-70.1v23.92l21.68.85h.28v41.94q-10.42,6.77-29.84,6.76-49,0-49-70.94,0-67.27,54.33-67.28,22.51,0,25.62,5.35,1.13,2,1.12,6.19v22l28.72-2V332.67a124.85,124.85,0,0,0-53.35-11.54q-28.58,0-51.1,13.23a82.09,82.09,0,0,0-20.69,18.29q-8.87,11-14.35,27.88t-5.49,38q0,47.87,21.81,72.21t60.67,24.35q38.85,0,65-18V446.12q0-5.07,1.83-6.9c1.22-1.22,3.33-2,6.34-2.39ZM910.6,347.31V324.5H842.47v23.93l16,.85V478.77q0,5.07-2,6.9c-1.31,1.22-3.38,2-6.19,2.4l-9.29.84v22.8h68.12V487.78l-16-.84V357.16c0-5.44,2.71-8.45,8.16-9ZM810.35,606.69l2.36-5a18.09,18.09,0,0,0-7.06-4.24,28.1,28.1,0,0,0-9.16-1.48,22.56,22.56,0,0,0-9.13,1.74,14,14,0,0,0-6.07,4.83,12.25,12.25,0,0,0-2.14,7.16,10.46,10.46,0,0,0,2,6.6,13.54,13.54,0,0,0,5.55,4.11,50.66,50.66,0,0,0,9.06,2.69,33.66,33.66,0,0,1,8.41,2.79,4.85,4.85,0,0,1,2.63,4.5,6.27,6.27,0,0,1-2.82,5.49q-2.84,1.93-8,1.94a25.84,25.84,0,0,1-8.18-1.22,22.67,22.67,0,0,1-7.06-4l-2.42,5A21.41,21.41,0,0,0,786,641.9a32.28,32.28,0,0,0,9.89,1.44,24.49,24.49,0,0,0,9.42-1.64,13.58,13.58,0,0,0,6.11-4.66,11.82,11.82,0,0,0,2.14-7,9.38,9.38,0,0,0-2.14-6.4,14.21,14.21,0,0,0-5.71-3.88,67.26,67.26,0,0,0-9.36-2.73,27.08,27.08,0,0,1-8-2.92,5.3,5.3,0,0,1-2.49-4.76,6.7,6.7,0,0,1,2.86-5.75c1.9-1.38,4.52-2.07,7.84-2.07a20.19,20.19,0,0,1,7.19,1.28A23.9,23.9,0,0,1,810.35,606.69ZM762.24,458.08q7-19.84,7-46.59,0-43.07-23.22-65t-64.61-22H604.31v23.93l16.05.85v130.9c0,4.7-2.72,7.32-8.17,7.89l-9.28.84v22.8h80q36,0,60.24-22.52Q755.21,477.94,762.24,458.08Zm-7.73,184.74V596.51h-6.76v46.31Zm-27.72-32.45q0-6.63-4.07-10.25t-11.43-3.61H692.11v46.31h6.77V624.29h12.41q7.37,0,11.43-3.67T726.79,610.37ZM697,83.43s.92-2.93-.89-3.82S692,80.74,692,80.74L622.8,151.17a48.92,48.92,0,0,0-8.6,11.9l-24.4-24.73-6.88-10.53s12.3-27.65,43.7-36l3.62-4.75-2.61-8.64s-31.64,12.3-45.23,36c0,0-18.09,8.32-21.06,21.46l-22.8,21.27,7.12,7.19,6.47,1.17S561.62,145.18,572,140l9.49,6.6,28.18,28.5a36.85,36.85,0,0,0-.49,16,28,28,0,0,1,.61,4.5l-16.2.88-2.9,2.29a2.41,2.41,0,0,0-3.13-1L576,208.41s-23.07,14.47-33,31.15a31.55,31.55,0,0,0-4.14,10.05s.08,1.69,2.49,3.58,4.14,1.45,4.14,1.45a40.31,40.31,0,0,0,10.05-4.54c17.4-10.74,30.71-33.17,30.71-33.17l10.25-11.45a2.11,2.11,0,0,0-1.41-2.62l1.65-2,15.8-.64c1.81.12,3.58,0,5.22.28a39.44,39.44,0,0,0,13.79.08c8.16,8.36,18,18.09,27.94,26.85,0,0,20.7,22.11,23.72,27.14a13,13,0,0,0,13.54-13.39c-5-3.05-26.89-24-26.89-24-7.27-8.44-15.19-16.8-22.47-24.12A40.45,40.45,0,0,0,658.5,177.3ZM666.43,606.69l2.36-5a18.16,18.16,0,0,0-7.06-4.24,28.14,28.14,0,0,0-9.16-1.48,22.6,22.6,0,0,0-9.13,1.74,14.18,14.18,0,0,0-6.08,4.83,12.31,12.31,0,0,0-2.13,7.16,10.52,10.52,0,0,0,2,6.6,13.54,13.54,0,0,0,5.55,4.11,50.54,50.54,0,0,0,9.07,2.69,34,34,0,0,1,8.41,2.79,4.84,4.84,0,0,1,2.62,4.5,6.27,6.27,0,0,1-2.82,5.49q-2.84,1.93-8,1.94a25.7,25.7,0,0,1-8.18-1.22,22.56,22.56,0,0,1-7.06-4l-2.44,5a21.54,21.54,0,0,0,7.72,4.27,32.31,32.31,0,0,0,9.88,1.44,24.56,24.56,0,0,0,9.44-1.64,13.6,13.6,0,0,0,6.1-4.66,11.82,11.82,0,0,0,2.14-7,9.38,9.38,0,0,0-2.14-6.4,14.28,14.28,0,0,0-5.71-3.88,67.26,67.26,0,0,0-9.36-2.73,27,27,0,0,1-8-2.92,5.29,5.29,0,0,1-2.5-4.76,6.71,6.71,0,0,1,2.85-5.75c1.91-1.38,4.52-2.07,7.86-2.07a20.23,20.23,0,0,1,7.19,1.28A24.14,24.14,0,0,1,666.43,606.69Zm-50.84,36.13-8-14.72A9.91,9.91,0,0,0,602,623a13.91,13.91,0,0,0,8.5-4.33,12.81,12.81,0,0,0,3-8.74q0-6.57-4-10c-2.7-2.27-6.6-3.41-11.73-3.41H578v46.31h6.71V623.7h7.62a10.16,10.16,0,0,1,4.76,1,7.92,7.92,0,0,1,3.12,3.31l7.88,14.85Zm-61-18.39V596.51h-6.7v28.38q0,6.36-3.09,9.65t-9.07,3.29c-4,0-7.06-1.1-9.09-3.29s-3.06-5.41-3.06-9.65V596.51h-6.7v27.92q0,9.32,4.8,14.12t14.05,4.79q9.21,0,14-4.82T554.57,624.43ZM535.63,511.71V487.78l-16-.84h-.28L461.87,324.5H397.41v22.81L415.14,349,369.82,480.18c-1.69,4.89-4.51,7.51-8.45,7.89l-9.29.84v22.8h65V487.78l-16.89-.84,8.45-24.77h65.87l5.91,17.45c.94,3,.85,5.07-.28,6.19s-3.28,1.88-6.47,2.26l-10.7.84v22.8ZM492.89,642.82V596.51H487.5l-16.68,32.06L454,596.51h-5.45v46.31h6.1l-.06-33.17,13.86,25.75h4.6l13.79-26.08-.06,33.5ZM462.72,287.91q0-11.27-7-18.44t-19-7.18q-12,0-19.43,7.32t-7.46,18.72q0,11.4,6.9,18.86t19.14,7.46q12.26,0,19.57-7.74A26.66,26.66,0,0,0,462.72,287.91Zm-181,223.8V487.78l-16-.56L245.39,443q-5.91-13.51-16-17.17a58.83,58.83,0,0,0,23.79-18q10-12.37,10-31.53,0-27.58-17.46-39.69T195.56,324.5H118.71v23.93l16,.85v130.9c0,4.7-2.72,7.32-8.16,7.89l-9.29.84v22.8h70.1V487.78l-18.3-.84V438h25.62q7,0,10.84,3t6.89,10l13.23,28.15a9.07,9.07,0,0,1,1.13,3.94q0,4.22-6.48,5.07l-8.16.84v22.8Z" transform="translate(-0.25 -0.25)"/><path class="cls-2" d="M1144.82,413.75v22.51l-6.47.57c-3,.38-5.12,1.17-6.34,2.39s-1.83,3.52-1.83,6.9v50.95q-26.17,18-65,18t-60.67-24.35q-21.81-24.35-21.81-72.21,0-21.12,5.49-38t14.35-27.88a82.09,82.09,0,0,1,20.69-18.29q22.53-13.23,51.1-13.23a124.85,124.85,0,0,1,53.35,11.54v47.86l-28.72,2v-22q0-4.23-1.12-6.19-3.11-5.36-25.62-5.35-54.33,0-54.33,67.28,0,70.94,49,70.94,19.42,0,29.84-6.76V438.52h-.28l-21.68-.85V413.75Z" transform="translate(-0.25 -0.25)"/><path class="cls-2" d="M910.6,324.5v22.81l-9.29.84c-5.45.56-8.16,3.57-8.16,9V486.94l16,.84v23.93H841.07v-22.8l9.29-.84c2.81-.38,4.88-1.18,6.19-2.4s2-3.52,2-6.9V349.28l-16-.85V324.5Z" transform="translate(-0.25 -0.25)"/><path class="cls-2" d="M812.71,601.7l-2.36,5a23.9,23.9,0,0,0-6.61-3.91,20.19,20.19,0,0,0-7.19-1.28c-3.32,0-5.94.69-7.84,2.07a6.7,6.7,0,0,0-2.86,5.75,5.3,5.3,0,0,0,2.49,4.76,27.08,27.08,0,0,0,8,2.92,67.26,67.26,0,0,1,9.36,2.73,14.21,14.21,0,0,1,5.71,3.88,9.38,9.38,0,0,1,2.14,6.4,11.82,11.82,0,0,1-2.14,7,13.58,13.58,0,0,1-6.11,4.66,24.49,24.49,0,0,1-9.42,1.64A32.28,32.28,0,0,1,786,641.9a21.41,21.41,0,0,1-7.71-4.27l2.42-5a22.67,22.67,0,0,0,7.06,4,25.84,25.84,0,0,0,8.18,1.22q5.19,0,8-1.94a6.27,6.27,0,0,0,2.82-5.49,4.85,4.85,0,0,0-2.63-4.5,33.66,33.66,0,0,0-8.41-2.79,50.66,50.66,0,0,1-9.06-2.69,13.54,13.54,0,0,1-5.55-4.11,10.46,10.46,0,0,1-2-6.6,12.25,12.25,0,0,1,2.14-7.16,14,14,0,0,1,6.07-4.83,22.56,22.56,0,0,1,9.13-1.74,28.1,28.1,0,0,1,9.16,1.48A18.09,18.09,0,0,1,812.71,601.7Z" transform="translate(-0.25 -0.25)"/><path class="cls-2" d="M769.28,411.49q0,26.75-7,46.59T743.1,489.19q-24.21,22.53-60.24,22.52h-80v-22.8l9.28-.84c5.45-.57,8.17-3.19,8.17-7.89V349.28l-16.05-.85V324.5h77.14q41.38,0,64.61,22T769.28,411.49Zm-48.14,55.74q13.51-17.44,13.52-50.67,0-64.74-54.9-64.75H654.7V484.69h28.72Q707.63,484.69,721.14,467.23Z" transform="translate(-0.25 -0.25)"/><rect class="cls-2" x="747.5" y="596.26" width="6.76" height="46.31"/><path class="cls-1" d="M734.66,416.56q0,33.22-13.52,50.67t-37.72,17.46H654.7V351.81h25.06Q734.66,351.81,734.66,416.56Z" transform="translate(-0.25 -0.25)"/><path class="cls-2" d="M722.72,600.12q4.06,3.61,4.07,10.25t-4.07,10.25q-4.07,3.68-11.43,3.67H698.88v18.53h-6.77V596.51h19.18Q718.66,596.51,722.72,600.12Zm-2.43,10.25q0-8.42-9.72-8.41H698.88v16.88h11.69Q720.29,618.84,720.29,610.37Z" transform="translate(-0.25 -0.25)"/><path class="cls-1" d="M710.57,602q9.72,0,9.72,8.41t-9.72,8.47H698.88V602Z" transform="translate(-0.25 -0.25)"/><path class="cls-2" d="M696.12,79.61c1.81.89.89,3.82.89,3.82L658.5,177.3a40.45,40.45,0,0,1-11.18,15.79c7.28,7.32,15.2,15.68,22.47,24.12,0,0,21.91,20.95,26.89,24a13,13,0,0,1-13.54,13.39c-3-5-23.72-27.14-23.72-27.14-10-8.76-19.78-18.49-27.94-26.85a39.44,39.44,0,0,1-13.79-.08c-1.64-.28-3.41-.16-5.22-.28l-15.8.64-1.65,2a2.11,2.11,0,0,1,1.41,2.62l-10.25,11.45s-13.31,22.43-30.71,33.17a40.31,40.31,0,0,1-10.05,4.54s-1.77.4-4.14-1.45-2.49-3.58-2.49-3.58a31.55,31.55,0,0,1,4.14-10.05c10-16.68,33-31.15,33-31.15l11.54-10.61a2.41,2.41,0,0,1,3.13,1l2.9-2.29,16.2-.88a28,28,0,0,0-.61-4.5,36.85,36.85,0,0,1,.49-16l-28.18-28.5L572,140c-10.33,5.15-19.82,25.49-19.82,25.49l-6.47-1.17-7.12-7.19,22.8-21.27c3-13.14,21.06-21.46,21.06-21.46,13.59-23.68,45.23-36,45.23-36l2.61,8.64-3.62,4.75c-31.4,8.32-43.7,36-43.7,36l6.88,10.53,24.4,24.73a48.92,48.92,0,0,1,8.6-11.9L692,80.74S694.35,78.73,696.12,79.61Z" transform="translate(-0.25 -0.25)"/><path class="cls-2" d="M668.79,601.7l-2.36,5a24.14,24.14,0,0,0-6.6-3.91,20.23,20.23,0,0,0-7.19-1.28c-3.34,0-5.95.69-7.86,2.07a6.71,6.71,0,0,0-2.85,5.75,5.29,5.29,0,0,0,2.5,4.76,27,27,0,0,0,8,2.92,67.26,67.26,0,0,1,9.36,2.73,14.28,14.28,0,0,1,5.71,3.88,9.38,9.38,0,0,1,2.14,6.4,11.82,11.82,0,0,1-2.14,7,13.6,13.6,0,0,1-6.1,4.66,24.56,24.56,0,0,1-9.44,1.64,32.31,32.31,0,0,1-9.88-1.44,21.54,21.54,0,0,1-7.72-4.27l2.44-5a22.56,22.56,0,0,0,7.06,4,25.7,25.7,0,0,0,8.18,1.22q5.18,0,8-1.94a6.27,6.27,0,0,0,2.82-5.49,4.84,4.84,0,0,0-2.62-4.5,34,34,0,0,0-8.41-2.79,50.54,50.54,0,0,1-9.07-2.69,13.54,13.54,0,0,1-5.55-4.11,10.52,10.52,0,0,1-2-6.6,12.31,12.31,0,0,1,2.13-7.16,14.18,14.18,0,0,1,6.08-4.83,22.6,22.6,0,0,1,9.13-1.74,28.14,28.14,0,0,1,9.16,1.48A18.16,18.16,0,0,1,668.79,601.7Z" transform="translate(-0.25 -0.25)"/><path class="cls-2" d="M607.64,628.1l8,14.72H608.1L600.22,628a7.92,7.92,0,0,0-3.12-3.31,10.16,10.16,0,0,0-4.76-1h-7.62v19.12H578V596.51h19.71c5.13,0,9,1.14,11.73,3.41s4,5.61,4,10a12.81,12.81,0,0,1-3,8.74A13.91,13.91,0,0,1,602,623,9.91,9.91,0,0,1,607.64,628.1ZM607,610q0-4.2-2.43-6.14c-1.63-1.29-4.16-1.94-7.63-1.94H584.66v16.29h12.27c3.42,0,6-.66,7.59-2S607,612.85,607,610Z" transform="translate(-0.25 -0.25)"/><path class="cls-1" d="M604.56,603.9Q607,605.84,607,610c0,2.81-.83,4.87-2.47,6.21s-4.17,2-7.59,2H584.66V602h12.27C600.4,602,602.93,602.61,604.56,603.9Z" transform="translate(-0.25 -0.25)"/><path class="cls-2" d="M554.57,596.51v27.92q0,9.26-4.83,14.09t-14,4.82q-9.26,0-14.05-4.79t-4.8-14.12V596.51h6.7v28.38q0,6.36,3.06,9.65c2,2.19,5.07,3.29,9.09,3.29s7-1.1,9.07-3.29,3.09-5.41,3.09-9.65V596.51Z" transform="translate(-0.25 -0.25)"/><path class="cls-2" d="M535.63,487.78v23.93H463v-22.8l10.7-.84q4.79-.57,6.47-2.26c1.13-1.12,1.22-3.19.28-6.19l-5.91-17.45H408.67l-8.45,24.77,16.89.84v23.93h-65v-22.8l9.29-.84c3.94-.38,6.76-3,8.45-7.89L415.14,349l-17.73-1.69V324.5h64.46L519.3,486.94h.28Zm-67.84-51.52L442.45,356h-.85l-26.18,80.23Z" transform="translate(-0.25 -0.25)"/><polygon class="cls-2" points="492.64 596.26 492.64 642.57 486.53 642.57 486.59 609.07 472.8 635.15 468.2 635.15 454.34 609.4 454.4 642.57 448.3 642.57 448.3 596.26 453.75 596.26 470.57 628.32 487.25 596.26 492.64 596.26"/><polygon class="cls-1" points="442.2 355.78 467.54 436.01 415.17 436.01 441.35 355.78 442.2 355.78"/><path class="cls-2" d="M455.68,269.47q7,7.17,7,18.44a26.66,26.66,0,0,1-7.32,19q-7.33,7.74-19.57,7.74t-19.14-7.46q-6.9-7.45-6.9-18.86t7.46-18.72q7.46-7.32,19.43-7.32T455.68,269.47ZM444,296.92a13.22,13.22,0,0,0,2.67-8.45q0-11.54-10.13-11.54T426.4,288.61q0,11.68,10.14,11.68A9,9,0,0,0,444,296.92Z" transform="translate(-0.25 -0.25)"/><path class="cls-1" d="M446.67,288.47a13.22,13.22,0,0,1-2.67,8.45,9,9,0,0,1-7.46,3.37q-10.14,0-10.14-11.68t10.14-11.68Q446.67,276.93,446.67,288.47Z" transform="translate(-0.25 -0.25)"/><path class="cls-2" d="M281.7,487.78v23.93H212.17v-22.8l8.16-.84q6.48-.85,6.48-5.07a9.07,9.07,0,0,0-1.13-3.94l-13.23-28.15q-3.1-7.05-6.89-10t-10.84-3H169.1v49l18.3.84v23.93H117.3v-22.8l9.29-.84c5.44-.57,8.16-3.19,8.16-7.89V349.28l-16-.85V324.5h76.85q32.66,0,50.11,12.11t17.46,39.69q0,19.15-10,31.53a58.83,58.83,0,0,1-23.79,18q10.14,3.66,16,17.17l20.27,44.2ZM228.22,380.24q0-17.73-9.15-23.08t-29.42-5.35H169.1v59.4h24.49Q228.23,411.21,228.22,380.24Z" transform="translate(-0.25 -0.25)"/><path class="cls-1" d="M219.07,357.16q9.13,5.35,9.15,23.08,0,31-34.63,31H169.1v-59.4h20.55Q209.92,351.81,219.07,357.16Z" transform="translate(-0.25 -0.25)"/></g></g></svg>